<?xml version="1.0" encoding="UTF-8"?>
<svg version="1.1" xmlns="http://www.w3.org/2000/svg" width="1440" height="1024">
<path d="M0 0 C1.83473877 0.06960937 1.83473877 0.06960937 3.70654297 0.140625 C71.8781969 2.88279057 138.03521355 18.69443511 198 52 C199.85394072 53.00041883 201.70809437 54.00044321 203.5625 55 C205.37632116 55.99760164 207.18876294 56.99771433 209 58 C210.0415625 58.56976563 211.083125 59.13953125 212.15625 59.7265625 C232.5842493 71.11189238 252.21080194 84.82912546 270 100 C270.5460791 100.4626123 271.0921582 100.92522461 271.65478516 101.40185547 C282.87864468 110.91134549 293.81276706 120.63796978 304.1965332 131.06616211 C305.69304925 132.56806925 307.194883 134.06451062 308.69726562 135.56054688 C314.00833646 140.86762627 319.14468142 146.26843752 324 152 C324.88858815 153.02147298 325.77786791 154.04234489 326.66796875 155.0625 C333.8416151 163.42619311 340.51562406 172.09311968 347 181 C347.74467529 182.0211792 347.74467529 182.0211792 348.50439453 183.06298828 C398.09401162 251.38394885 428.22881859 332.71310503 434 417 C434.05639648 417.74217773 434.11279297 418.48435547 434.17089844 419.24902344 C439.85207381 494.31449444 422.53691255 570.52676596 390 638 C389.55156738 638.93924316 389.10313477 639.87848633 388.64111328 640.84619141 C369.79759037 680.16855917 344.35278206 715.85171489 315 748 C314.15953125 748.93328125 313.3190625 749.8665625 312.453125 750.828125 C303.86533919 760.33350984 295.04304285 769.791198 285.2578125 778.08203125 C283.39752058 779.66231383 281.56663753 781.2656178 279.7421875 782.88671875 C271.44251564 790.22899188 262.88109721 797.04262802 253.93359375 803.57666016 C252.10689836 804.92131093 250.30098364 806.28915446 248.5 807.66796875 C214.62212429 833.41096302 175.19080514 853.26351598 135 867 C133.99114746 867.35255859 132.98229492 867.70511719 131.94287109 868.06835938 C108.20452238 876.32315622 83.70617319 882.07970176 58.875 885.875 C57.63427734 886.06602295 56.39355469 886.2570459 55.11523438 886.45385742 C34.61700366 889.39800794 14.15934747 890.35184558 -6.53491211 890.31567383 C-10.29895998 890.31251138 -14.06222001 890.33610286 -17.82617188 890.36132812 C-34.40893411 890.40470242 -50.57201506 889.22755039 -67 887 C-67.79383087 886.89531403 -68.58766174 886.79062805 -69.4055481 886.68276978 C-73.74077128 886.10675851 -78.05919271 885.45618419 -82.375 884.75 C-84.2936084 884.43639526 -84.2936084 884.43639526 -86.25097656 884.11645508 C-100.0134582 881.80694973 -113.52208795 878.59448805 -127 875 C-128.66095703 874.56179932 -128.66095703 874.56179932 -130.35546875 874.11474609 C-158.28846672 866.63151247 -186.87788773 855.97003906 -212.375 842.1875 C-213.16044189 841.76791016 -213.94588379 841.34832031 -214.75512695 840.91601562 C-217.17452308 839.61871082 -219.58789716 838.31080757 -222 837 C-222.77166504 836.58314941 -223.54333008 836.16629883 -224.33837891 835.73681641 C-263.61005536 814.47539852 -298.56002086 787.3764833 -330.21832275 755.95690918 C-331.22212632 754.96114564 -332.22740562 753.96686706 -333.23431396 752.97424316 C-339.96283637 746.33114889 -346.09957163 739.38893876 -352 732 C-352.9349252 730.89829544 -353.87626362 729.80194907 -354.828125 728.71484375 C-366.43026002 715.40981472 -376.44722356 700.82509304 -386 686 C-386.48404297 685.25508301 -386.96808594 684.51016602 -387.46679688 683.74267578 C-443.22798363 597.5167549 -465.13916366 490.56253038 -445.4375 351.515625 C-436.77640013 312.22542482 -423.42837604 274.70054636 -405.00048828 238.94775391 C-403.99775018 236.99562005 -403.01248293 235.03528113 -402.02734375 233.07421875 C-390.98461342 211.38004627 -377.51412356 190.34056346 -362.05078125 171.515625 C-360.47743767 169.58565688 -358.93915769 167.64236729 -357.41796875 165.671875 C-352.33904471 159.09951933 -347.15258869 152.77398304 -341.484375 146.6953125 C-339.51140123 144.55482209 -337.59998608 142.38704303 -335.69921875 140.18359375 C-331.98783096 135.92714901 -328.06611815 131.91795354 -324.0625 127.9375 C-323.39798828 127.26912109 -322.73347656 126.60074219 -322.04882812 125.91210938 C-318.08563996 121.95660926 -314.01067937 118.191316 -309.77075195 114.53442383 C-307.65248822 112.69886784 -305.61092018 110.78789144 -303.5625 108.875 C-297.05431771 102.99761076 -290.02609865 97.81232404 -283.02636719 92.54296875 C-281.25979877 91.19782267 -279.51845649 89.82985555 -277.7890625 88.4375 C-203.80176686 29.40301739 -105.10592834 1.75897412 0 0 Z M-127 63 C-128.03334473 63.30776367 -129.06668945 63.61552734 -130.13134766 63.93261719 C-180.20402434 79.10118635 -226.92957343 105.56917935 -267 139 C-267.88921143 139.73839111 -267.88921143 139.73839111 -268.79638672 140.49169922 C-283.09608082 152.40340491 -296.6618888 165.0595367 -309 179 C-309.7528125 179.8146875 -310.505625 180.629375 -311.28125 181.46875 C-317.06807305 187.74460035 -322.3563544 194.34573078 -327.54980469 201.11279297 C-328.51791078 202.37263474 -329.48993585 203.62947455 -330.46582031 204.88330078 C-342.42630866 220.25825197 -352.57088915 236.62225723 -361.79101562 253.76708984 C-362.98197286 255.96670512 -364.19957769 258.14970897 -365.421875 260.33203125 C-390.46413158 305.66516758 -405.20741338 359.42474703 -409 411 C-409.08612549 412.15113281 -409.17225098 413.30226563 -409.26098633 414.48828125 C-409.94967699 424.45743125 -410.20200554 434.38337048 -410.1875 444.375 C-410.18689575 445.15480225 -410.1862915 445.93460449 -410.18566895 446.73803711 C-409.98229881 544.28625983 -374.33940785 639.45241732 -306.93359375 714.15234375 C-305.81534465 715.2555828 -304.69087314 716.35257163 -303.55859375 717.44140625 C-301.84697309 719.15302691 -300.30845324 720.96069085 -298.75 722.8125 C-294.28403506 728.0142761 -289.13099334 732.47210715 -284 737 C-282.0354441 734.05316616 -281.13704648 731.64421341 -280 728.3125 C-270.17883723 702.56049762 -248.41826613 680.59161461 -227 664 C-225.39560089 662.68778415 -223.791435 661.3752831 -222.1875 660.0625 C-191.10740232 635.39267247 -155.20045234 616.54169223 -118 603 C-117.0507666 602.65340332 -116.1015332 602.30680664 -115.12353516 601.94970703 C-94.74774485 594.60835358 -73.78605832 589.31815942 -52.4375 585.6875 C-51.57253906 585.54022461 -50.70757813 585.39294922 -49.81640625 585.24121094 C-33.54747043 582.6644915 -17.27080085 581.58698519 -0.8125 581.625 C0.08842377 581.62554382 0.98934753 581.62608765 1.91757202 581.62664795 C81.92359064 581.84618175 166.43507804 611.23137558 227 664 C228.05574219 664.88751953 228.05574219 664.88751953 229.1328125 665.79296875 C248.84700795 682.49641887 265.02003393 702.46711856 271 728 C275.79558656 724.04726868 280.17952822 719.89457426 284.375 715.3125 C284.93807861 714.70092041 285.50115723 714.08934082 286.08129883 713.45922852 C290.93888724 708.14297179 295.55012804 702.6627432 300 697 C300.77601563 696.01902344 301.55203125 695.03804687 302.3515625 694.02734375 C312.34662811 681.22414066 321.77340868 668.01539799 330 654 C330.4213623 653.28585937 330.84272461 652.57171875 331.27685547 651.8359375 C334.13069349 646.98937694 336.94621639 642.12242157 339.72753906 637.23388672 C340.5009466 635.87612023 341.27796967 634.52039363 342.06152344 633.16845703 C360.03249827 602.07046048 372.15193911 565.93253599 380 531 C380.22236328 530.01064453 380.44472656 529.02128906 380.67382812 528.00195312 C384.02830031 512.77781015 386.41103236 497.50617988 388 482 C388.14356934 480.70533813 388.14356934 480.70533813 388.29003906 479.38452148 C389.3005791 469.1786104 389.24374168 458.93332559 389.25 448.6875 C389.25067474 447.69234375 389.25134949 446.6971875 389.25204468 445.671875 C389.16670523 366.0429896 364.61472811 287.92441829 320 222 C319.52594727 221.2992334 319.05189453 220.5984668 318.56347656 219.87646484 C311.7106875 209.81700996 304.39708183 200.22587208 296.58496094 190.89355469 C295.06159503 189.07358766 293.55019941 187.24418355 292.0390625 185.4140625 C286.06949592 178.255777 279.7490278 171.56789244 273.07470703 165.06030273 C270.51444464 162.55861739 268.10472058 160.13186322 265.875 157.32421875 C263.80248682 154.75516595 261.59723087 152.90795154 259 150.875 C254.88702242 147.58570891 250.9624767 144.16575262 247.125 140.5625 C241.07551338 134.93606804 234.63786357 129.90892348 228 125 C227.01435059 124.26160889 227.01435059 124.26160889 226.00878906 123.50830078 C214.1033302 114.60279554 201.74111145 106.65234389 189 99 C187.85534691 98.30358563 186.71079756 97.6070007 185.56640625 96.91015625 C177.60327091 92.1452408 169.37360927 87.98298951 161 84 C160.08428223 83.56026855 159.16856445 83.12053711 158.22509766 82.66748047 C74.30213408 42.72964379 -23.01265476 34.34390176 -127 63 Z " fill="#000000" transform="translate(747,72)"/>
<path d="M0 0 C1.12986076 -0.01058945 1.12986076 -0.01058945 2.282547 -0.02139282 C56.29931862 -0.41237837 104.41949644 16.44800602 143.45947266 54.79882812 C146.45572785 57.7961255 149.22678744 60.88624569 151.86328125 64.203125 C152.62898438 65.15445313 153.3946875 66.10578125 154.18359375 67.0859375 C185.78901544 106.90485182 200.25904765 155.60761575 195.09179688 206.26806641 C189.43039673 254.27267344 165.13961085 299.81681598 127.10205078 330.14453125 C86.49652382 361.49863256 36.83073721 375.26269367 -14.19848633 369.38305664 C-61.33361758 362.94055618 -105.86501465 338.5093968 -135.08276367 300.66088867 C-167.03835005 258.37794906 -180.00373381 208.79745997 -173.13671875 156.203125 C-167.04458207 117.84406194 -149.56352196 84.43940677 -123.13671875 56.203125 C-121.82960938 54.79740234 -121.82960938 54.79740234 -120.49609375 53.36328125 C-90.25534259 21.5854893 -44.04494369 0.27636192 0 0 Z " fill="#000000" transform="translate(722.13671875,225.796875)"/>
</svg>
