<?xml version="1.0" standalone="no"?>
<!DOCTYPE svg PUBLIC "-//W3C//DTD SVG 20010904//EN"
 "http://www.w3.org/TR/2001/REC-SVG-20010904/DTD/svg10.dtd">
<svg version="1.0" xmlns="http://www.w3.org/2000/svg"
 width="1440.000000pt" height="1024.000000pt" viewBox="0 0 1440.000000 1024.000000"
 preserveAspectRatio="xMidYMid meet">

<g transform="translate(0.000000,1024.000000) scale(0.100000,-0.100000)"
fill="#000000" stroke="none">
<path d="M2870 9994 c-484 -88 -863 -455 -959 -931 -21 -101 -21 -104 -21
-3931 0 -3387 2 -3840 15 -3918 86 -497 467 -879 967 -969 129 -23 255 -18
295 11 38 29 73 92 73 134 0 45 -36 118 -72 143 -19 14 -59 23 -149 33 -137
15 -232 40 -324 86 -221 111 -377 304 -447 553 l-23 80 -3 3358 -2 3357 4980
0 4980 0 -2 -3367 -3 -3368 -22 -70 c-97 -311 -310 -520 -618 -607 l-80 -23
-3687 -5 -3687 -5 -28 -21 c-49 -36 -73 -82 -73 -137 0 -63 30 -118 80 -146
l38 -21 3675 0 c3299 0 3683 2 3758 16 309 58 573 222 757 469 58 78 139 236
171 335 54 168 51 -94 51 4060 0 3408 -2 3847 -15 3926 -74 419 -378 774 -785
914 -171 58 -391 78 -459 39 -83 -46 -112 -152 -62 -232 31 -51 80 -73 177
-80 121 -9 218 -34 321 -82 230 -108 395 -305 465 -557 18 -64 21 -110 25
-385 l5 -313 -4981 0 -4981 0 0 283 c0 331 12 414 80 555 116 243 304 400 565
474 l80 23 3682 5 3682 5 28 21 c102 75 99 211 -6 281 l-34 23 -3676 -1
c-3052 -1 -3689 -3 -3751 -15z"/>
<path d="M2885 9125 c-122 -66 -142 -204 -42 -292 103 -90 264 -28 283 109 8
59 -20 125 -71 163 -46 35 -124 44 -170 20z"/>
<path d="M3712 9119 c-128 -64 -127 -251 2 -310 55 -25 104 -24 157 4 121 64
118 247 -4 306 -55 27 -101 27 -155 0z"/>
<path d="M4555 9125 c-122 -66 -142 -204 -42 -292 107 -94 274 -24 284 120 5
62 -16 107 -70 151 -46 36 -125 46 -172 21z"/>
<path d="M3285 7129 c-57 -16 -139 -74 -176 -123 -73 -97 -70 -29 -67 -1211
l3 -1060 25 -50 c51 -105 154 -178 272 -196 90 -13 2236 -12 2318 2 124 19
217 88 268 197 l27 57 0 367 c0 356 -1 367 -21 395 -11 15 -36 39 -55 51 -28
20 -44 23 -94 20 -67 -4 -101 -23 -132 -73 -16 -27 -19 -63 -23 -355 l-5 -325
-1125 0 -1125 0 0 990 0 990 1125 0 1125 0 5 -390 c6 -439 4 -431 83 -475 31
-18 50 -21 93 -18 58 5 93 25 128 72 20 27 21 39 21 459 0 428 0 432 -23 481
-34 75 -84 129 -154 167 l-63 34 -1200 2 c-673 1 -1213 -3 -1230 -8z"/>
<path d="M6765 7126 c-92 -29 -169 -99 -214 -196 l-26 -55 -3 -740 c-3 -784 0
-839 43 -924 31 -63 112 -134 183 -163 l57 -23 2105 0 2105 0 60 24 c83 33
175 125 201 201 18 52 19 93 19 840 l0 785 -27 57 c-58 124 -162 198 -291 206
-63 3 -76 1 -107 -20 -108 -74 -109 -212 -1 -285 19 -13 47 -23 62 -23 l29 0
0 -725 0 -725 -2050 0 -2050 0 0 725 0 725 1730 0 c1702 0 1731 0 1769 20 115
58 114 225 0 289 -37 21 -39 21 -1795 20 -1384 0 -1768 -3 -1799 -13z"/>
<path d="M6872 4550 c-104 -37 -179 -109 -230 -218 l-27 -57 -3 -1200 c-2
-870 0 -1216 8 -1260 24 -122 102 -224 216 -281 l59 -29 460 0 460 0 59 29
c81 41 150 111 189 193 l32 68 0 1240 0 1240 -32 67 c-39 83 -108 154 -188
194 l-60 29 -445 2 c-417 3 -448 1 -498 -17z m876 -332 c17 -17 17 -2349 0
-2366 -17 -17 -769 -17 -786 0 -17 17 -17 2349 0 2366 17 17 769 17 786 0z"/>
<path d="M8863 4555 c-99 -30 -204 -121 -246 -213 l-22 -47 0 -1260 0 -1260
31 -60 c39 -74 116 -148 192 -183 l57 -27 1065 0 1065 0 65 31 c115 55 197
161 220 283 13 72 14 2343 0 2425 -20 126 -102 233 -220 290 l-65 31 -668 3
c-749 3 -714 6 -764 -69 -36 -55 -40 -113 -11 -168 28 -55 62 -81 119 -92 24
-4 316 -8 650 -9 457 0 608 -3 617 -12 17 -17 17 -2349 0 -2366 -9 -9 -247
-12 -1010 -12 -976 0 -998 0 -1008 19 -16 31 -14 2332 3 2354 6 9 34 21 61 26
53 10 88 32 120 75 16 21 21 42 21 90 0 54 -4 68 -29 100 -16 21 -44 44 -62
52 -41 17 -125 17 -181 -1z"/>
<path d="M3285 3989 c-57 -16 -139 -74 -176 -123 -73 -97 -70 -38 -67 -1136
l3 -985 28 -53 c37 -70 97 -128 166 -161 l56 -26 1205 0 1205 0 48 22 c66 31
150 113 178 176 l24 52 0 995 0 995 -23 49 c-34 75 -84 129 -154 167 l-63 34
-1200 2 c-673 1 -1213 -3 -1230 -8z m2343 -1236 l2 -913 -1130 0 -1130 0 0
908 c0 500 3 912 7 915 3 4 511 6 1127 5 l1121 -3 3 -912z"/>
</g>
</svg>
