<?xml version="1.0" standalone="no"?>
<!DOCTYPE svg PUBLIC "-//W3C//DTD SVG 20010904//EN"
 "http://www.w3.org/TR/2001/REC-SVG-20010904/DTD/svg10.dtd">
<svg version="1.0" xmlns="http://www.w3.org/2000/svg"
 width="1440.000000pt" height="1024.000000pt" viewBox="0 0 1440.000000 1024.000000"
 preserveAspectRatio="xMidYMid meet">

<g transform="translate(0.000000,1024.000000) scale(0.100000,-0.100000)"
fill="#000000" stroke="none">
<path d="M5765 9886 c-208 -51 -351 -262 -314 -463 6 -30 7 -58 4 -61 -4 -4
-152 -9 -330 -12 l-323 -5 -44 -30 c-28 -20 -53 -49 -70 -84 -25 -48 -28 -66
-28 -148 l0 -93 -767 0 c-837 0 -852 -1 -956 -57 -69 -37 -158 -126 -191 -191
-60 -119 -56 165 -56 -3748 0 -2394 3 -3599 10 -3635 36 -186 190 -336 380
-369 46 -7 489 -10 1500 -8 l1435 3 3 149 c2 113 -1 151 -10 158 -7 4 -663 8
-1457 8 l-1444 0 -35 22 c-20 12 -42 38 -53 62 -18 40 -19 152 -19 3601 0
3489 1 3561 20 3602 11 25 33 51 52 63 32 20 48 20 811 20 l777 0 0 -42 c0
-68 19 -117 61 -163 73 -79 6 -75 1144 -75 l1011 0 55 28 c77 39 110 90 117
181 l5 71 777 0 777 0 34 -23 c19 -12 42 -38 51 -57 17 -33 18 -118 18 -1343
0 -1147 2 -1308 15 -1313 8 -4 75 29 155 76 l140 82 0 1247 c0 1095 -2 1254
-16 1306 -36 141 -143 258 -289 316 l-60 24 -800 5 -800 5 -5 105 c-6 113 -17
145 -67 192 -58 56 -76 58 -406 58 -197 0 -307 4 -313 10 -7 7 -8 29 -1 67 20
117 -28 260 -118 349 -103 104 -242 144 -380 110z"/>
<path d="M4574 7354 c-18 -8 -150 -154 -318 -350 -158 -184 -294 -338 -303
-341 -11 -4 -56 36 -151 137 -76 80 -151 149 -169 156 -122 52 -246 -53 -212
-178 9 -36 45 -77 227 -261 120 -120 229 -225 244 -233 36 -18 92 -18 133 2
51 24 751 844 765 895 12 43 2 98 -24 135 -35 49 -131 68 -192 38z"/>
<path d="M5121 6800 c-73 -17 -123 -76 -123 -144 0 -56 25 -102 72 -133 l33
-23 1181 0 c1161 0 1182 0 1214 20 100 61 96 204 -8 264 -35 21 -44 21 -1185
23 -632 0 -1165 -2 -1184 -7z"/>
<path d="M8470 5410 c-294 -171 -536 -316 -538 -323 -3 -14 1065 -637 1092
-637 16 0 1063 602 1084 624 11 10 10 15 -2 25 -35 30 -1069 621 -1084 621
-10 -1 -258 -140 -552 -310z"/>
<path d="M4583 5695 c-21 -9 -131 -130 -328 -359 -163 -190 -299 -346 -303
-346 -3 0 -76 69 -162 154 -139 138 -159 155 -198 161 -56 9 -128 -25 -156
-74 -24 -41 -25 -106 -3 -146 9 -16 114 -130 234 -252 201 -205 221 -222 260
-228 58 -9 102 8 150 58 118 121 688 798 705 836 34 74 1 157 -75 191 -50 23
-80 24 -124 5z"/>
<path d="M5100 5133 c-62 -24 -102 -81 -102 -148 0 -53 22 -97 64 -127 l33
-23 847 0 c839 0 847 0 874 21 51 38 69 71 69 129 0 58 -18 91 -69 129 -27 21
-36 21 -864 23 -460 1 -844 -1 -852 -4z"/>
<path d="M7765 4798 c-3 -7 -4 -296 -3 -641 l3 -629 615 -355 c338 -196 624
-358 635 -360 14 -3 233 118 648 358 l627 362 0 635 0 634 -23 -4 c-12 -2
-286 -157 -607 -343 -550 -319 -588 -339 -635 -339 -48 -1 -74 13 -645 343
-327 189 -598 346 -603 348 -4 2 -9 -2 -12 -9z"/>
<path d="M4573 4023 c-18 -10 -161 -169 -319 -353 -157 -184 -294 -336 -304
-338 -11 -2 -63 45 -151 139 -74 79 -148 148 -166 155 -122 52 -246 -53 -212
-178 9 -36 45 -77 227 -261 120 -120 229 -225 244 -233 36 -18 92 -18 133 2
38 18 728 814 758 875 27 55 16 110 -33 162 -32 35 -43 41 -91 44 -39 3 -63
-1 -86 -14z"/>
<path d="M5070 3447 c-128 -86 -76 -263 83 -282 29 -3 261 -5 517 -3 521 3
517 3 562 76 45 74 25 157 -52 210 l-33 22 -522 0 -522 0 -33 -23z"/>
<path d="M9897 2951 c-352 -203 -547 -320 -545 -329 2 -7 248 -155 546 -328
481 -278 546 -312 565 -302 96 50 1077 622 1077 627 0 16 -41 42 -315 198
-154 89 -393 226 -530 305 l-250 144 -548 -315z"/>
<path d="M7050 2950 c-370 -214 -535 -314 -535 -326 0 -12 167 -113 543 -331
l544 -314 541 312 c298 172 545 318 549 323 4 6 2 16 -5 23 -22 21 -1061 616
-1082 619 -12 2 -242 -125 -555 -306z"/>
<path d="M6336 2325 c-3 -9 -6 -290 -6 -625 0 -564 1 -609 18 -628 9 -11 295
-180 636 -376 l618 -357 632 365 631 364 3 631 c2 541 0 632 -12 637 -8 3
-273 -144 -606 -336 -325 -188 -607 -344 -625 -347 -19 -3 -48 -1 -65 5 -17 6
-290 160 -606 343 -316 182 -582 333 -593 336 -11 3 -21 -2 -25 -12z"/>
<path d="M9182 1703 l3 -636 629 -364 630 -364 200 116 c111 63 395 227 631
364 l430 248 3 637 c2 554 0 636 -13 636 -8 0 -279 -153 -603 -340 -388 -223
-603 -342 -629 -346 -25 -4 -52 -1 -74 9 -18 8 -292 163 -607 346 -316 182
-580 331 -588 331 -12 0 -14 -92 -12 -637z"/>
</g>
</svg>
