<?xml version="1.0" standalone="no"?>
<!DOCTYPE svg PUBLIC "-//W3C//DTD SVG 20010904//EN"
 "http://www.w3.org/TR/2001/REC-SVG-20010904/DTD/svg10.dtd">
<svg version="1.0" xmlns="http://www.w3.org/2000/svg"
 width="1440.000000pt" height="1024.000000pt" viewBox="0 0 1440.000000 1024.000000"
 preserveAspectRatio="xMidYMid meet">

<g transform="translate(0.000000,1024.000000) scale(0.100000,-0.100000)"
fill="#000000" stroke="none">
<path d="M6528 9880 c-454 -81 -851 -425 -998 -868 -66 -201 -63 -153 -67
-1081 -3 -565 0 -868 7 -915 35 -236 264 -407 489 -367 174 31 302 140 351
300 19 61 20 95 20 875 0 692 3 820 16 876 26 110 88 197 186 261 117 76 -56
70 2219 67 l2035 -3 75 -37 c93 -46 168 -122 212 -215 l32 -68 0 -3586 0
-3585 -37 -75 c-58 -118 -159 -201 -283 -233 -53 -14 -284 -16 -2057 -16
-1441 0 -2012 3 -2050 11 -170 36 -305 175 -338 348 -6 34 -10 352 -10 855 0
647 -3 811 -14 852 -56 211 -271 353 -481 317 -187 -32 -331 -172 -365 -352
-14 -73 -13 -1586 0 -1720 64 -622 545 -1107 1161 -1171 130 -13 4043 -14
4179 0 510 50 950 408 1108 901 61 190 57 -81 57 3869 0 3413 -1 3640 -17
3720 -63 307 -212 557 -454 764 -138 118 -342 219 -542 269 l-87 21 -2120 2
c-2041 2 -2124 2 -2227 -16z"/>
<path d="M4027 6839 c-32 -11 -77 -31 -100 -45 -23 -14 -353 -337 -733 -717
-628 -628 -694 -698 -723 -757 -43 -90 -57 -173 -42 -262 24 -146 -3 -116 770
-890 661 -662 710 -709 773 -738 162 -75 332 -53 470 61 158 133 194 380 81
562 -14 23 -159 176 -321 340 l-296 297 2461 0 c2437 0 2462 0 2526 20 73 23
167 87 210 143 199 261 54 637 -267 696 -42 8 -776 11 -2495 11 l-2435 0 310
313 c275 277 313 319 337 373 87 199 25 424 -149 539 -112 75 -258 95 -377 54z"/>
</g>
</svg>
