<?xml version="1.0" standalone="no"?>
<!DOCTYPE svg PUBLIC "-//W3C//DTD SVG 20010904//EN"
 "http://www.w3.org/TR/2001/REC-SVG-20010904/DTD/svg10.dtd">
<svg version="1.0" xmlns="http://www.w3.org/2000/svg"
 width="1440.000000pt" height="1024.000000pt" viewBox="0 0 1440.000000 1024.000000"
 preserveAspectRatio="xMidYMid meet">

<g transform="translate(0.000000,1024.000000) scale(0.100000,-0.100000)"
fill="#000000" stroke="none">
<path d="M7900 9806 c-36 -13 -109 -44 -163 -70 -169 -79 -203 -80 -359 -6
-133 63 -265 23 -327 -98 -33 -64 -27 -126 30 -343 56 -213 102 -347 158 -454
20 -38 37 -73 39 -77 2 -5 -11 -8 -30 -8 -88 0 -216 -99 -264 -203 -24 -52
-29 -74 -29 -142 1 -106 35 -185 110 -254 l52 -47 -264 -385 c-408 -592 -505
-741 -597 -919 -231 -447 -336 -845 -336 -1273 0 -258 29 -446 100 -657 21
-63 37 -116 35 -118 -2 -2 -61 10 -132 27 -249 59 -300 65 -548 66 -250 0
-307 -7 -496 -65 -118 -37 -302 -129 -411 -206 -163 -117 -345 -313 -473 -508
-29 -45 -180 -303 -336 -574 -220 -383 -286 -491 -298 -487 -9 4 -43 11 -76
17 -146 24 -308 -35 -421 -154 -42 -43 -276 -438 -337 -566 -30 -64 -32 -73
-32 -187 1 -108 3 -127 28 -184 30 -72 92 -157 140 -194 55 -41 2188 -1270
2247 -1293 193 -78 403 -31 540 123 50 56 299 480 338 576 17 42 27 88 30 142
7 139 -26 242 -111 348 l-47 56 72 123 c39 68 84 143 101 168 124 184 295 307
526 377 l86 27 555 7 c539 6 607 10 815 45 250 42 546 142 790 268 128 66
2977 1707 3124 1799 190 120 241 363 115 552 -65 98 -190 206 -306 266 -112
57 -196 74 -368 74 -259 0 -399 -41 -793 -230 -142 -69 -261 -125 -264 -125
-3 0 -3 17 1 38 4 20 14 78 23 127 23 130 23 481 0 635 -60 392 -208 791 -430
1160 -34 58 -217 329 -405 603 l-342 499 49 46 c27 26 62 72 77 102 26 50 29
64 29 155 0 90 -3 105 -28 154 -52 98 -154 176 -247 188 -22 3 -40 7 -40 10 0
2 20 45 45 96 24 51 62 146 84 212 50 152 121 430 121 475 0 49 -41 130 -81
164 -83 71 -158 74 -297 14 -141 -61 -170 -59 -342 21 -74 35 -157 69 -185 77
-77 21 -170 17 -245 -10z m206 -180 c22 -7 94 -38 161 -69 199 -91 297 -98
447 -31 102 45 119 49 135 30 10 -12 3 -50 -40 -213 -61 -234 -114 -376 -185
-493 l-51 -85 -532 -3 -531 -2 -31 42 c-42 58 -121 225 -152 323 -35 108 -107
387 -107 413 0 34 32 35 106 1 189 -84 274 -79 512 30 70 32 134 61 142 64 28
10 87 7 126 -7z m751 -1087 c93 -58 96 -202 4 -265 l-36 -24 -786 0 -786 0
-33 23 c-97 65 -97 199 0 264 l33 23 785 0 c780 0 785 0 819 -21z m-1300 -501
c-2 -7 -12 -39 -21 -72 -10 -32 -28 -83 -42 -113 -32 -74 -31 -107 5 -144 36
-35 86 -39 124 -9 26 21 76 139 117 278 l22 72 276 0 277 0 33 -112 c43 -145
84 -231 117 -246 42 -19 83 -15 110 12 35 35 41 71 20 115 -21 44 -75 200 -75
218 0 10 28 13 123 12 l122 0 357 -522 c403 -587 424 -621 519 -802 147 -282
231 -522 291 -840 20 -106 23 -151 22 -375 0 -271 -9 -348 -63 -525 l-22 -70
-693 -347 -693 -346 -16 52 c-9 28 -33 78 -52 110 -19 33 -34 60 -33 61 2 1
35 13 73 25 551 180 930 727 902 1301 -17 346 -150 649 -388 888 -188 188
-405 304 -677 363 -138 30 -367 29 -509 -1 -261 -55 -469 -162 -654 -339 -118
-112 -207 -231 -274 -367 -101 -205 -139 -363 -138 -580 2 -370 124 -672 377
-932 l99 -103 -450 0 -449 0 -41 98 c-110 259 -150 493 -140 805 11 355 105
698 296 1074 105 207 130 247 549 856 l356 517 124 0 c95 0 123 -3 119 -12z
m757 -1217 c182 -49 356 -145 486 -268 222 -210 330 -432 361 -740 39 -377
-134 -757 -451 -995 -103 -77 -187 -121 -310 -162 -135 -45 -199 -54 -232 -32
-13 9 -58 28 -99 42 -69 24 -89 27 -294 31 l-220 5 -65 35 c-195 105 -382 304
-475 507 -42 89 -80 218 -96 318 -19 123 -7 342 25 457 54 193 152 359 300
507 157 157 346 258 576 309 101 22 390 14 494 -14z m2994 -1627 c119 -24 214
-75 302 -164 42 -41 83 -91 93 -112 39 -83 9 -195 -66 -247 -102 -69 -3085
-1781 -3192 -1832 -246 -116 -447 -178 -735 -225 -74 -13 -219 -18 -655 -24
-603 -8 -648 -12 -810 -66 -171 -57 -309 -145 -445 -284 -80 -82 -110 -121
-192 -261 -53 -90 -101 -170 -105 -177 -6 -10 -247 124 -973 543 -531 306
-968 560 -972 564 -12 10 562 999 656 1130 187 264 441 462 701 549 315 106
697 91 1130 -45 l120 -38 910 -5 c818 -4 914 -7 951 -22 193 -77 311 -281 275
-475 -32 -175 -167 -315 -339 -352 -36 -7 -263 -11 -717 -11 l-665 0 -31 -28
c-25 -22 -31 -36 -31 -67 0 -31 6 -45 31 -67 l31 -28 678 0 c754 0 757 1 892
66 57 28 96 58 161 123 98 98 147 184 174 304 l16 73 1102 547 c785 389 1132
557 1208 582 188 62 353 79 497 49z m-7993 -2374 c65 -25 2202 -1268 2233
-1299 55 -55 77 -113 77 -206 0 -93 7 -77 -175 -390 -67 -116 -134 -223 -148
-238 -73 -77 -229 -111 -322 -69 -99 45 -2158 1242 -2202 1281 -25 23 -56 61
-68 86 -27 55 -36 146 -21 201 14 52 268 496 315 551 53 61 124 92 213 93 39
0 84 -4 98 -10z"/>
<path d="M8004 6500 c-37 -15 -64 -59 -64 -105 0 -38 -3 -44 -27 -50 -41 -10
-129 -72 -163 -115 -58 -73 -75 -125 -75 -230 0 -83 3 -102 28 -155 57 -122
171 -201 312 -215 75 -7 117 -24 152 -62 64 -68 56 -190 -15 -250 -80 -67
-168 -59 -251 25 -45 45 -57 52 -91 52 -74 0 -117 -71 -85 -139 23 -48 96
-113 161 -143 50 -23 54 -27 54 -60 0 -71 56 -122 119 -108 44 9 71 48 71 101
0 43 0 43 60 70 66 29 145 105 178 170 117 229 -45 509 -306 531 -82 7 -136
33 -169 82 -46 67 -42 149 9 207 41 46 77 64 132 64 63 0 92 -14 154 -72 49
-46 56 -50 90 -45 69 11 101 80 68 146 -22 42 -102 110 -162 138 -52 24 -54
26 -54 64 0 51 -13 75 -50 94 -32 17 -45 18 -76 5z"/>
</g>
</svg>
