<?xml version="1.0" standalone="no"?>
<!DOCTYPE svg PUBLIC "-//W3C//DTD SVG 20010904//EN"
 "http://www.w3.org/TR/2001/REC-SVG-20010904/DTD/svg10.dtd">
<svg version="1.0" xmlns="http://www.w3.org/2000/svg"
 width="1440.000000pt" height="1024.000000pt" viewBox="0 0 1440.000000 1024.000000"
 preserveAspectRatio="xMidYMid meet">

<g transform="translate(0.000000,1024.000000) scale(0.100000,-0.100000)"
fill="#000000" stroke="none">
<path d="M2401 9780 c-78 -28 -139 -84 -181 -165 -31 -60 -35 -76 -34 -144 1
-131 69 -242 183 -300 60 -31 152 -41 393 -41 l218 0 279 -559 280 -558 501
-2339 c410 -1914 506 -2347 528 -2387 35 -65 110 -131 175 -154 50 -17 179
-18 3127 -18 3002 0 3076 0 3130 19 41 14 71 35 117 81 53 53 64 71 82 131 11
38 246 1122 522 2409 558 2608 522 2405 459 2531 -23 48 -45 75 -84 104 -102
77 -70 74 -736 78 l-596 3 -23 62 c-88 228 -238 461 -425 655 -654 680 -1689
809 -2501 312 -246 -151 -494 -400 -653 -655 -63 -102 -159 -299 -168 -345
l-7 -30 -1463 0 -1464 0 -296 592 c-267 533 -301 596 -348 643 -35 35 -70 59
-109 73 -56 21 -72 22 -455 22 -368 -1 -401 -2 -451 -20z m6791 -683 c337 -89
612 -283 799 -567 218 -330 278 -761 158 -1138 -64 -198 -168 -370 -321 -528
-192 -198 -424 -322 -723 -385 -35 -8 -131 -13 -230 -13 -247 0 -404 37 -619
147 -130 66 -230 143 -347 264 -179 187 -287 390 -344 646 -25 112 -31 380
-11 497 20 115 72 272 121 371 193 382 553 650 973 725 52 9 136 12 262 10
159 -3 199 -7 282 -29z m-2322 -1364 c0 -162 40 -384 101 -568 322 -968 1333
-1547 2319 -1329 309 69 548 178 793 362 369 278 633 679 743 1127 30 123 54
302 54 401 l0 74 295 0 c162 0 295 -4 295 -8 0 -4 -191 -896 -425 -1982 -234
-1086 -429 -1987 -432 -2003 l-6 -27 -2740 2 -2741 3 -18 80 c-10 44 -74 343
-142 665 -69 322 -161 756 -206 965 -384 1801 -490 2297 -490 2301 0 2 585 4
1300 4 l1300 0 0 -67z"/>
<path d="M9420 8442 c-37 -13 -105 -76 -377 -346 l-333 -330 -147 145 c-127
125 -156 149 -206 167 -164 61 -348 -11 -424 -166 -24 -49 -28 -69 -28 -142 0
-138 8 -150 326 -472 321 -325 333 -333 479 -332 145 1 125 -15 647 506 527
527 517 514 518 658 0 73 -4 93 -28 141 -36 74 -108 140 -180 168 -70 26 -181
27 -247 3z"/>
<path d="M5763 6776 c-199 -64 -291 -290 -193 -475 37 -69 90 -119 166 -153
47 -22 60 -23 294 -23 245 0 245 0 302 27 70 32 135 96 168 163 21 42 25 65
25 140 0 78 -4 97 -28 146 -32 66 -99 132 -165 162 -44 20 -65 22 -287 24
-178 2 -251 -1 -282 -11z"/>
<path d="M5784 5111 c-98 -24 -198 -113 -235 -210 -27 -71 -23 -182 9 -253 26
-60 102 -136 167 -168 l50 -25 2095 0 2095 0 57 28 c249 122 249 482 0 604
l-57 28 -2075 2 c-1141 0 -2089 -2 -2106 -6z"/>
<path d="M5687 2430 c-252 -45 -493 -199 -650 -417 -51 -70 -121 -222 -147
-318 -31 -112 -38 -300 -16 -423 43 -248 186 -482 385 -634 84 -63 242 -141
346 -169 120 -32 329 -37 455 -11 242 50 452 181 596 371 195 258 255 563 173
877 -87 334 -366 612 -707 705 -86 23 -347 35 -435 19z m297 -680 c76 -29 139
-88 178 -168 28 -57 33 -76 33 -142 0 -66 -5 -85 -33 -142 -63 -129 -172 -193
-317 -186 -130 6 -229 72 -284 188 -22 47 -26 68 -26 145 0 78 4 97 27 140 44
82 110 142 188 169 65 22 168 20 234 -4z"/>
<path d="M10032 2429 c-309 -54 -594 -277 -732 -572 -67 -144 -84 -228 -84
-412 1 -139 4 -173 26 -255 91 -339 337 -600 664 -704 113 -36 182 -46 308
-46 200 0 378 52 542 158 214 139 365 348 431 601 34 129 36 320 4 460 -67
300 -271 557 -546 686 -148 70 -226 87 -405 91 -85 1 -179 -1 -208 -7z m336
-694 c203 -111 239 -388 70 -540 -71 -64 -143 -88 -243 -83 -131 8 -230 73
-283 187 -67 145 -25 310 103 408 63 48 118 64 215 60 71 -2 94 -8 138 -32z"/>
</g>
</svg>
