<?xml version="1.0" standalone="no"?>
<!DOCTYPE svg PUBLIC "-//W3C//DTD SVG 20010904//EN"
 "http://www.w3.org/TR/2001/REC-SVG-20010904/DTD/svg10.dtd">
<svg version="1.0" xmlns="http://www.w3.org/2000/svg"
 width="1440.000000pt" height="1024.000000pt" viewBox="0 0 1440.000000 1024.000000"
 preserveAspectRatio="xMidYMid meet">

<g transform="translate(0.000000,1024.000000) scale(0.100000,-0.100000)"
fill="#000000" stroke="none">
<path d="M11275 9501 c-935 -181 -1707 -332 -1717 -336 -22 -9 -41 -59 -33
-87 4 -13 198 -214 431 -448 l424 -425 -1603 -1603 c-1412 -1412 -1606 -1602
-1632 -1602 -26 0 -157 127 -1080 1049 -716 716 -1059 1052 -1078 1056 -15 4
-39 4 -55 1 -34 -9 -3594 -3565 -3618 -3614 -32 -68 -38 -61 474 -575 263
-263 489 -485 504 -493 15 -8 42 -14 60 -14 30 0 131 99 1303 1270 1200 1199
1272 1270 1305 1270 33 0 94 -60 1085 -1050 939 -939 1055 -1051 1088 -1057
26 -4 45 0 64 12 16 10 982 974 2147 2142 l2119 2124 431 -430 c384 -383 435
-431 463 -431 54 0 73 26 93 125 10 50 161 832 336 1738 l317 1648 -20 27
c-16 21 -29 27 -64 29 -24 1 -809 -146 -1744 -326z"/>
<path d="M11440 5803 c-8 -3 -144 -134 -302 -292 l-288 -286 0 -2402 c0 -2365
0 -2402 19 -2413 13 -7 265 -10 749 -10 693 0 730 1 745 18 16 17 17 189 17
2268 l0 2248 -422 423 c-233 233 -437 430 -454 438 -34 16 -40 17 -64 8z"/>
<path d="M9478 3853 l-748 -748 0 -1337 c0 -1202 2 -1338 16 -1352 14 -14 95
-16 748 -16 697 0 734 1 749 18 16 17 17 177 17 2094 0 1941 -1 2076 -17 2082
-13 5 -196 -173 -765 -741z"/>
<path d="M4708 3453 l-218 -217 0 -1402 c0 -1262 2 -1404 16 -1418 14 -14 95
-16 748 -16 697 0 734 1 749 18 16 17 17 109 17 1123 l0 1104 -513 513 c-478
478 -514 512 -547 512 -31 0 -53 -19 -252 -217z"/>
<path d="M3119 1864 l-749 -749 0 -342 c0 -297 2 -344 16 -357 14 -14 95 -16
748 -16 698 0 734 1 749 18 16 17 17 105 15 1102 -3 904 -5 1084 -17 1088 -8
3 -316 -299 -762 -744z"/>
<path d="M7631 2005 c-262 -261 -481 -475 -486 -475 -5 0 -123 113 -261 251
-148 148 -256 249 -263 245 -8 -5 -11 -229 -11 -801 0 -708 2 -795 16 -809 14
-14 95 -16 748 -16 697 0 734 1 749 18 16 17 17 103 17 1034 0 944 -1 1016
-17 1022 -13 5 -133 -109 -492 -469z"/>
</g>
</svg>
