<?xml version="1.0" encoding="UTF-8"?>
<svg version="1.1" xmlns="http://www.w3.org/2000/svg" width="1440" height="1024">
<path d="M0 0 C1.64174832 -0.00187098 3.2834962 -0.00417282 4.92524338 -0.00686532 C9.41294194 -0.01295448 13.9006218 -0.01285314 18.38832355 -0.01167095 C23.23789424 -0.0114662 28.08745905 -0.01699277 32.93702698 -0.02172852 C42.43025513 -0.03002022 51.92347706 -0.0327827 61.41670853 -0.03334089 C69.13844297 -0.03381684 76.86017538 -0.0358755 84.58190918 -0.03904152 C106.50034682 -0.04784472 128.41877958 -0.05246152 150.337219 -0.05171105 C152.10811908 -0.05165111 152.10811908 -0.05165111 153.91479492 -0.05158997 C155.68787124 -0.05152864 155.68787124 -0.05152864 157.49676728 -0.05146609 C176.64032531 -0.0510599 195.78386364 -0.06062335 214.92741597 -0.07472833 C234.60928334 -0.08911485 254.29114112 -0.09599724 273.97301388 -0.09513456 C285.01256581 -0.09480333 296.05209711 -0.09751758 307.09164429 -0.10831261 C316.49355081 -0.11744768 325.89542734 -0.11956833 335.2973364 -0.11280318 C340.08751796 -0.10955287 344.87764208 -0.10942701 349.66781807 -0.11815643 C354.06624678 -0.12608894 358.46457314 -0.12452211 362.86299956 -0.1158723 C364.44106074 -0.114352 366.01912983 -0.11609685 367.59718168 -0.12173238 C382.46012655 -0.17122894 397.85355958 0.32478151 412.1574707 4.69621277 C413.01783936 4.95160828 413.87820801 5.20700378 414.76464844 5.47013855 C447.97988849 15.81402697 475.54662753 38.88486479 491.9699707 69.44621277 C502.89565197 90.53418106 506.82707454 112.80488599 506.78889847 136.42600155 C506.79197742 138.2189747 506.79197742 138.2189747 506.79511857 140.04816952 C506.79978024 143.34940338 506.800021 146.65058246 506.79834098 149.95181549 C506.79760586 153.54981043 506.80264221 157.14779823 506.806916 160.74579006 C506.8144739 167.87452504 506.81668793 175.00325251 506.81724505 182.13199107 C506.81816088 190.67405869 506.82483487 199.21611943 506.83159188 207.75818408 C506.84763143 228.40072407 506.85355275 249.0432633 506.85834063 269.6858084 C506.86067853 279.45558263 506.86428139 289.22535626 506.868036 298.99513003 C506.88086944 332.453926 506.891589 365.91272166 506.8950386 399.37152004 C506.89526024 401.47079353 506.89548202 403.57006701 506.89570396 405.6693405 C506.89592459 407.77360827 506.89614508 409.87787604 506.8963654 411.98214382 C506.89680795 416.20348386 506.89725507 420.4248239 506.89770508 424.64616394 C506.89781447 425.69280627 506.89792386 426.73944859 506.89803657 427.81780735 C506.90166662 461.74978191 506.91758581 495.6817351 506.94089544 529.61370147 C506.96550872 565.5091742 506.97921213 601.40463471 506.98040652 637.30011612 C506.98057797 641.2428637 506.9807934 645.18561127 506.98104095 649.12835884 C506.98109672 650.09913682 506.98115249 651.06991479 506.98120995 652.07011028 C506.98235905 667.67095509 506.99336899 683.27177791 507.00792801 698.87261531 C507.0223165 714.56237245 507.02551671 730.25210148 507.01748803 745.94186341 C507.01304296 755.25369301 507.01684732 764.56543171 507.03272654 773.87724931 C507.04251825 780.10938941 507.04125855 786.34146622 507.03129031 792.57360582 C507.02592835 796.11657307 507.02508969 799.65936651 507.03779903 803.20231896 C507.1486447 841.26095159 500.24066887 877.96586324 472.6496582 906.11027527 C472.14789062 906.61462097 471.64612305 907.11896667 471.12915039 907.63859558 C469.71572418 909.07453157 468.34558582 910.55269029 466.9777832 912.03215027 C459.98358481 919.44143462 452.34041492 924.91954424 443.6574707 930.13371277 C443.04887207 930.50125671 442.44027344 930.86880066 441.81323242 931.2474823 C424.09954699 941.75947578 402.91219972 948.2444299 382.27060032 948.26514053 C381.2184464 948.26821948 381.2184464 948.26821948 380.14503685 948.27136064 C377.80692405 948.27699147 375.4688709 948.27557827 373.13075256 948.27415466 C371.43242066 948.27674056 369.73408937 948.27975434 368.03575891 948.28315806 C363.3778011 948.29120512 358.71985872 948.29301636 354.06189477 948.29375553 C349.03439255 948.29561012 344.00689825 948.30315954 338.97940063 948.30989075 C327.98941509 948.3234588 316.99943319 948.32949655 306.00944066 948.33390141 C299.14270593 948.3366667 292.2759726 948.3409046 285.40923882 948.34540558 C266.38472234 948.35759679 247.36020698 948.36789605 228.33568668 948.37128067 C227.11862076 948.37150024 225.90155484 948.3717198 224.64760813 948.37194602 C223.42768222 948.3721643 222.20775631 948.37238258 220.95086294 948.37260747 C218.47896071 948.37305093 216.00705848 948.37349749 213.53515625 948.37394714 C212.30901564 948.37416857 211.08287503 948.37439 209.81957864 948.37461814 C189.96315234 948.37856399 170.10676278 948.39601218 150.25035066 948.41930667 C129.84763995 948.44304813 109.44494766 948.45548381 89.04222292 948.45664859 C77.59355348 948.45756383 66.14493192 948.46327812 54.69627571 948.4814682 C44.94508781 948.496907 35.19396257 948.50196743 25.44276477 948.4937301 C20.4725769 948.48983682 15.50251508 948.49068821 10.53234291 948.50478745 C5.97164041 948.51760611 1.41115764 948.51625966 -3.1495449 948.50419673 C-4.78889965 948.50225342 -6.4282704 948.50525403 -8.06760275 948.5140411 C-43.55561639 948.69203419 -76.28522557 935.91561646 -102.06518555 911.41496277 C-120.34576401 893.10302825 -131.93782603 870.86826646 -137.6550293 845.75871277 C-137.81455078 845.058349 -137.97407227 844.35798523 -138.13842773 843.63639832 C-140.48289913 832.56743983 -140.4959209 821.37733678 -140.50366211 810.11247253 C-140.50830068 808.52442818 -140.5133267 806.93638491 -140.51870728 805.3483429 C-140.53172737 801.06526768 -140.53825492 796.78220806 -140.54271793 792.49911618 C-140.54566362 789.81662813 -140.54977098 787.1341442 -140.55422211 784.45165825 C-140.56786536 776.03897612 -140.57754929 767.6263036 -140.581424 759.21361119 C-140.58590674 749.53768341 -140.60347804 739.86189674 -140.63242459 730.18601185 C-140.65409318 722.67992925 -140.66413092 715.17388623 -140.66546512 707.66777271 C-140.66650879 703.19618999 -140.6723238 698.7247405 -140.69028473 694.25319099 C-140.70685697 690.04646134 -140.70887693 685.83996386 -140.70014572 681.63321304 C-140.69938041 680.09824561 -140.70365054 678.5632652 -140.71360397 677.02832985 C-140.81109006 661.04557674 -138.25813716 648.44955976 -127.2800293 636.38371277 C-117.34517755 626.83813119 -105.45990403 624.56433215 -92.2956543 624.79386902 C-81.88728676 625.27220933 -72.67083814 629.80540393 -65.3425293 637.13371277 C-54.70231358 648.98995314 -52.73677242 661.83613329 -52.84423828 677.29020691 C-52.84040548 678.86869822 -52.83477831 680.44718603 -52.82751465 682.02566528 C-52.81565029 685.39826577 -52.81598584 688.77055443 -52.82610893 692.14315987 C-52.84179778 697.48659386 -52.82790412 702.82971371 -52.81007385 708.17312622 C-52.77937899 718.55172481 -52.77774793 728.93022517 -52.77972412 739.30886078 C-52.78112074 752.52262618 -52.77062541 765.73631609 -52.7311464 778.95002645 C-52.71629595 784.25137106 -52.71641993 789.55243234 -52.72862422 794.85378087 C-52.73336427 798.16162879 -52.72577105 801.46937017 -52.71508026 804.7772007 C-52.71269238 806.29926383 -52.71534405 807.82134547 -52.72368813 809.3433876 C-52.8017175 824.49413809 -50.66339476 837.36735062 -40.1550293 848.88371277 C-28.76433309 859.54358997 -15.99812551 860.43260136 -1.22427368 860.39440918 C0.42955053 860.39743155 2.08337335 860.40132146 3.7371937 860.40600175 C8.27186803 860.41627946 12.80646328 860.41410049 17.34114408 860.40982115 C22.23559133 860.40735353 27.13001956 860.41636854 32.02445984 860.42385864 C41.60933366 860.43660659 51.19417947 860.43839922 60.77906035 860.43605838 C68.57007279 860.43427519 76.36107674 860.43602489 84.15208817 860.44028282 C85.81551123 860.44117561 85.81551123 860.44117561 87.5125388 860.44208642 C89.76538622 860.44329818 92.01823363 860.44451231 94.27108105 860.4457288 C115.3973076 860.45660469 136.5235182 860.4544416 157.64974566 860.44834395 C176.97418237 860.44317462 196.29856868 860.45443061 215.62299542 860.47344217 C235.46857953 860.49281669 255.31413979 860.50107726 275.15973341 860.49731892 C286.30021487 860.49540631 297.44065342 860.49790033 308.58112717 860.51203346 C318.0649905 860.52394327 327.54878451 860.5253566 337.03264879 860.5132433 C341.87032486 860.50735187 346.70787412 860.50626254 351.54554176 860.5182457 C355.97697316 860.52909493 360.40817171 860.52601252 364.83959217 860.51198401 C366.43978944 860.50933445 368.0400049 860.51171176 369.64018433 860.51971988 C384.3788086 860.58834011 396.17885776 858.12680355 407.4074707 848.00871277 C416.81262515 837.98099491 418.96477398 825.4439733 418.9119463 812.2819252 C418.91515277 811.09780477 418.91835925 809.91368434 418.9216629 808.69368148 C418.9285288 805.40988232 418.92646311 802.12622958 418.92060717 798.84243298 C418.91643244 795.26869955 418.92384134 791.69498687 418.92975968 788.1212585 C418.93852203 781.85867311 418.93983367 775.59612042 418.93625641 769.33353043 C418.93095083 760.02066269 418.93704328 750.70782663 418.94533934 741.39496234 C418.96058697 723.79437558 418.9622836 706.19380319 418.95981631 688.5932112 C418.95798418 675.00177781 418.9597416 661.41034913 418.96404076 647.81891632 C418.96464316 645.86674102 418.96524435 643.91456571 418.96584436 641.96239041 C418.96675161 639.02069195 418.96766027 636.07899349 418.96857671 633.13729503 C418.97700753 605.78310008 418.98134107 578.42890691 418.97716999 551.07471085 C418.97701361 550.04330513 418.97685724 549.01189942 418.97669612 547.94923899 C418.97589033 542.72158975 418.97504456 537.49394052 418.97418282 532.26629129 C418.97401173 531.22805249 418.97384065 530.18981369 418.97366437 529.12011311 C418.97331772 527.02054118 418.97296919 524.92096926 418.97261879 522.82139733 C418.96726179 490.15335638 418.97519086 457.48534243 418.99365234 424.81730652 C419.01436711 388.11900574 419.02509601 351.42072169 419.02107686 314.72241473 C419.02068151 310.80953392 419.02031996 306.8966531 419.01997948 302.98377228 C419.01988875 302.02031432 419.01979801 301.05685636 419.01970453 300.06420271 C419.0185384 285.51769661 419.02518814 270.97120739 419.0357914 256.42470551 C419.04783824 239.88082794 419.04940834 223.33698756 419.03700123 206.79310945 C419.030369 197.53515997 419.03201207 188.2772994 419.04558974 179.01935702 C419.05383055 172.83323233 419.05114148 166.64717428 419.03961448 160.46105501 C419.03335438 156.93775833 419.03176663 153.41463521 419.04347781 149.89134851 C419.05357111 146.09035898 419.04517187 142.28983575 419.03220081 138.4888649 C419.04316483 136.85983164 419.04316483 136.85983164 419.05435035 135.19788861 C418.95521123 121.18398242 415.36977894 109.47510367 405.7980957 99.17668152 C397.13797284 90.91163725 386.50065996 88.01451409 374.74981403 88.002285 C374.07590218 88.00023237 373.40199032 87.99817974 372.70765689 87.9960649 C370.45118897 87.99041389 368.19478245 87.99184979 365.93830872 87.99327087 C364.30342355 87.99068615 362.66853901 87.98767269 361.03365535 87.98426747 C356.54202022 87.97620687 352.05040108 87.97440843 347.55875957 87.97367001 C342.71402425 87.97181783 337.86929719 87.96426968 333.02456665 87.95753479 C322.43154713 87.94395785 311.83853139 87.93792781 301.24550462 87.93352413 C294.63042702 87.93076076 288.01535089 87.92652325 281.40027428 87.92201996 C263.08268354 87.90982838 244.76509398 87.89952868 226.44749928 87.89614487 C224.68925364 87.89581552 224.68925364 87.89581552 222.89548789 87.89547952 C221.13305434 87.8951521 221.13305434 87.8951521 219.33501607 87.89481807 C216.95413832 87.8943746 214.57326057 87.89392804 212.19238281 87.89347839 C210.42088935 87.89314625 210.42088935 87.89314625 208.61360814 87.89280739 C189.47725164 87.88885937 170.34093322 87.87140471 151.20459143 87.84811887 C131.55456121 87.82440107 111.9045501 87.81194283 92.25450534 87.81077695 C81.22294617 87.80986046 70.19143662 87.80411458 59.15989113 87.78595734 C49.76640903 87.77055063 40.37299189 87.7654393 30.97949956 87.77369544 C26.18829072 87.77759983 21.39721268 87.77668257 16.60601997 87.76263809 C12.21578741 87.74988681 7.82578379 87.75110747 3.43555149 87.7632288 C1.85142497 87.76518366 0.26728217 87.76211715 -1.31682148 87.75338444 C-16.77171396 87.67361302 -29.69145892 90.09038493 -41.2331543 100.87590027 C-51.94430902 112.34080292 -52.79255214 126.34011605 -52.72729492 141.30021667 C-52.73140922 142.89165636 -52.73687514 144.48309303 -52.74357605 146.07452393 C-52.75522463 149.47764984 -52.75781306 152.88061392 -52.7532196 156.28375626 C-52.74636279 161.67273864 -52.76235705 167.06151112 -52.78161621 172.45045471 C-52.82253637 184.85797255 -52.83400503 197.26548367 -52.84514618 209.67305756 C-52.85567271 221.05826003 -52.87252502 232.44336044 -52.91324186 243.82850015 C-52.93152469 249.17804894 -52.93551729 254.52735419 -52.92830658 259.87692666 C-52.92677825 263.21090932 -52.93760857 266.54477145 -52.95168495 269.87872124 C-52.95566637 271.41613115 -52.95459913 272.95356437 -52.94791222 274.49096489 C-52.88792164 289.43922634 -55.65903646 301.11080791 -65.9675293 312.38371277 C-75.38890649 321.29972874 -87.24626537 324.69137942 -99.9050293 324.44230652 C-112.03824937 323.35307426 -121.8173017 318.13384409 -130.1550293 309.38371277 C-139.86336754 297.54595128 -140.64347025 283.8020797 -140.6171875 269.17521667 C-140.62154118 267.56926742 -140.62672651 265.96332024 -140.63267517 264.3573761 C-140.64601459 260.01377304 -140.64664885 255.67025728 -140.64411187 251.32663774 C-140.64303744 247.68447886 -140.64793822 244.04233728 -140.65271729 240.40018213 C-140.66379779 231.7919772 -140.66425991 223.1838159 -140.65820312 214.5756073 C-140.65218168 205.74105207 -140.66443103 196.90665684 -140.68577319 188.07212889 C-140.70349198 180.45301962 -140.70937398 172.83396078 -140.70613545 165.21483171 C-140.70433669 160.67985012 -140.70681488 156.14498234 -140.72084999 151.61001968 C-140.78671507 128.31473214 -140.55445279 106.25642339 -132.3425293 84.13371277 C-132.1058252 83.48869812 -131.86912109 82.84368347 -131.62524414 82.17912292 C-125.26206708 65.29045298 -114.96090725 50.9103149 -102.3425293 38.13371277 C-101.72635742 37.44535339 -101.11018555 36.75699402 -100.4753418 36.04777527 C-82.30204516 16.25907449 -53.68566068 4.18606552 -27.3425293 1.13371277 C-26.63811297 1.05149512 -25.93369665 0.96927748 -25.20793438 0.88456839 C-16.80799786 0.00758678 -8.43438839 -0.00916388 0 0 Z " fill="#FFFFFF" transform="translate(642.342529296875,47.86628723144531)"/>
<path d="M0 0 C10.77543604 6.04188842 18.21078372 14.12700894 22.30078125 25.85546875 C25.46368597 37.5212472 24.63088781 48.5230189 19.86328125 59.60546875 C14.34843293 68.74001938 6.80694095 76.0592611 -0.73046875 83.4921875 C-1.93038813 84.68649655 -3.12963573 85.88148087 -4.32824707 87.07710266 C-7.45165876 90.18917859 -10.5839778 93.29213024 -13.71838379 96.39312744 C-16.9284732 99.57227008 -20.12985647 102.76015466 -23.33203125 105.94726562 C-29.59187792 112.17514759 -35.86118299 118.39339637 -42.13671875 124.60546875 C-41.11041845 124.60606584 -40.08411815 124.60666293 -39.02671784 124.60727811 C6.21044518 124.63385844 51.44760207 124.66538661 96.68473816 124.72210693 C97.36976171 124.72296444 98.05478527 124.72382195 98.76056711 124.72470545 C113.64848871 124.7433717 128.53640902 124.76292428 143.42432826 124.7833897 C150.72551224 124.79342076 158.02669648 124.80325598 165.32788086 124.81298828 C166.0544309 124.81396009 166.78098094 124.81493189 167.52954765 124.81593315 C191.07303932 124.84733229 214.61651952 124.86580386 238.1600285 124.87756122 C262.35694466 124.88971323 286.55381297 124.91492785 310.75069725 124.95654489 C314.1694627 124.96241886 317.58822839 124.96814372 321.00699425 124.97377777 C322.01627319 124.97544796 322.01627319 124.97544796 323.04594161 124.97715189 C333.87075435 124.99468188 344.69553023 124.99846898 355.52035526 124.99709796 C366.4067661 124.99601311 377.29307899 125.00977318 388.17945442 125.03763303 C394.07642219 125.05229112 399.97321249 125.06047135 405.87019539 125.05127144 C411.27105839 125.04298807 416.6715647 125.05313005 422.07237478 125.07780537 C424.02409749 125.08349177 425.97585397 125.08246928 427.92756651 125.0739812 C442.78760422 125.01490192 454.93138098 126.73688994 466.48828125 136.91796875 C475.86930922 147.5333425 480.31033286 157.76794813 480.1328125 172.06640625 C479.18581379 184.50091109 473.51417354 194.74261534 464.30078125 203.04296875 C463.17211817 203.91969811 462.02697453 204.77579854 460.86328125 205.60546875 C459.85265625 206.32734375 458.84203125 207.04921875 457.80078125 207.79296875 C446.34892518 213.84623011 432.42698522 213.03909679 419.88113403 213.00419617 C417.88089363 213.00964362 415.88065644 213.01639849 413.88042438 213.02433807 C408.41645876 213.04228303 402.95262961 213.04181619 397.4886415 213.0382086 C391.58424313 213.0375828 385.67988978 213.05422304 379.7755127 213.06872559 C369.55654692 213.0914817 359.33761516 213.10339155 349.11862564 213.10785484 C338.40682386 213.11254484 327.69505883 213.1232819 316.98327255 213.14228249 C315.98238736 213.14405268 315.98238736 213.14405268 314.96128227 213.14585863 C311.57230588 213.15188446 308.1833297 213.15802016 304.79435359 213.16419814 C280.82108232 213.20770319 256.84781191 213.23744682 232.87451172 213.2590332 C209.5919467 213.28002928 186.30940276 213.30729875 163.02685547 213.34301758 C162.30856189 213.34411706 161.5902683 213.34521653 160.85020825 213.34634933 C153.63648398 213.35739813 146.42275991 213.368574 139.20903599 213.37984295 C124.51524343 213.40279402 109.82144964 213.42489726 95.12765503 213.44648743 C94.11436963 213.44797786 94.11436963 213.44797786 93.08061381 213.44949839 C48.00818673 213.51569771 2.93573543 213.56207433 -42.13671875 213.60546875 C-41.08555374 214.64331009 -41.08555374 214.64331009 -40.01315308 215.70211792 C-33.38213762 222.25173903 -26.76194409 228.81213048 -20.15196037 235.38297844 C-16.75406721 238.76007456 -13.35258826 242.13338058 -9.94238281 245.49804688 C-6.64611937 248.7505707 -3.35997404 252.0130172 -0.0803566 255.28232193 C1.16712435 256.52246175 2.41809703 257.75910021 3.67273331 258.99200058 C15.10410707 270.23329825 23.59321732 280.83380668 24.23828125 297.60546875 C23.74743892 310.90089358 18.46319899 322.46819765 8.86328125 331.60546875 C-0.86685167 339.48224302 -12.67451204 342.83630398 -25.13671875 341.60546875 C-44.02135653 337.43407217 -55.55509499 324.33649712 -68.74316406 311.16015625 C-69.97608037 309.93188001 -71.2091894 308.70379719 -72.44247437 307.47589111 C-75.76285981 304.168507 -79.08001054 300.85789822 -82.39613438 297.54624176 C-84.47257753 295.47274595 -86.54959945 293.39983156 -88.62679291 291.3270874 C-95.13987019 284.82764524 -101.65097142 278.32623321 -108.15917325 271.82190895 C-115.64756386 264.33800622 -123.1424643 256.86070429 -130.64305425 249.38902855 C-136.46093231 243.59279522 -142.27300534 237.79078243 -148.08073878 231.98438454 C-151.54133118 228.52483704 -155.00427927 225.06773121 -158.47330475 221.61663818 C-161.73365651 218.37281817 -164.98670711 215.12184722 -168.23442459 211.86537933 C-169.42258059 210.67645603 -170.61327386 209.49006172 -171.80676651 208.30649567 C-183.33359323 196.86989562 -192.008302 185.99954209 -192.44921875 169.10546875 C-192.2524645 151.33200122 -182.29098631 140.29927749 -170.36743164 128.51147461 C-169.17529579 127.3218264 -167.98383157 126.13150482 -166.79298401 124.94056702 C-164.2405009 122.390776 -161.68336156 119.8457854 -159.12239265 117.30451775 C-155.06734301 113.2806583 -151.02284936 109.24629696 -146.979599 105.21058655 C-140.58009938 98.82554312 -134.17341748 92.44776118 -127.76372093 86.07295567 C-116.29121183 74.66244167 -104.83086558 63.23971797 -93.37333673 51.81416422 C-89.357419 47.81002744 -85.33834173 43.80909738 -81.31653416 39.81087673 C-78.80941089 37.31765239 -76.30433054 34.82238238 -73.79968834 32.32666588 C-72.64410778 31.17612243 -71.48764666 30.02646256 -70.33020782 28.87778854 C-64.87039898 23.45863772 -59.46437801 18.04438023 -54.49227047 12.16486454 C-41.08472203 -3.25887347 -18.62730388 -8.44974268 0 0 Z " fill="#FFFFFF" transform="translate(393.13671875,353.39453125)"/>
</svg>
